<?xml version="1.0" encoding="UTF-8"?>
<svg version="1.1" xmlns="http://www.w3.org/2000/svg" width="32" height="32">
<path d="M0 0 C4.61581142 2.18643699 6.72864085 4.49599804 9 9 C9.82885269 14.54808604 9.7240695 19.47140883 7.3125 24.5625 C4.21064779 27.8320199 1.61649202 29.75850523 -2.90234375 30.43359375 C-9.05071801 30.44150672 -13.31314296 30.4465054 -18 26 C-21.88937897 20.55860924 -21.79042609 15.48149391 -21 9 C-16.63929544 -0.20593186 -9.3488659 -1.1401056 0 0 Z " fill="#D443AD" transform="translate(22,1)"/>
<path d="M0 0 C3.46204548 3.46204548 3.43161799 4.13630319 3.4375 8.8125 C3.29952746 14.00528482 2.6854582 17.11532784 -1 21 C-4.79863817 23.73580676 -7.46262332 24.41005546 -12.125 24.375 C-13.15882812 24.38273437 -14.19265625 24.39046875 -15.2578125 24.3984375 C-18 24 -18 24 -21 21 C-14.07 14.07 -7.14 7.14 0 0 Z " fill="#C554AD" transform="translate(28,7)"/>
<path d="M0 0 C2.475 1.485 2.475 1.485 5 3 C4.14998765 8.9962178 -1.22867256 12.74063982 -5.3125 16.8125 C-6.18068359 17.70904297 -7.04886719 18.60558594 -7.94335938 19.52929688 C-8.78318359 20.37169922 -9.62300781 21.21410156 -10.48828125 22.08203125 C-11.25696533 22.85780518 -12.02564941 23.6335791 -12.81762695 24.43286133 C-15 26 -15 26 -17.20385742 25.8737793 C-19.57852417 24.71856218 -20.06616405 23.41240953 -21 21 C-20.56171875 20.63390625 -20.1234375 20.2678125 -19.671875 19.890625 C-15.11657261 16.00195223 -10.80312827 11.9129016 -6.5625 7.6875 C-6.03043945 7.15995117 -5.49837891 6.63240234 -4.95019531 6.08886719 C-2.12523665 3.30900568 -2.12523665 3.30900568 0 0 Z " fill="#E54A9D" transform="translate(23,2)"/>
<path d="M0 0 C-4.97161218 6.01826738 -10.29829243 11.66337352 -16 17 C-16.33 17 -16.66 17 -17 17 C-17.41813284 10.93707386 -17.13274522 7.80292012 -13 3 C-8.7604485 -0.53295958 -5.28561944 -0.26876031 0 0 Z " fill="#C03DC0" transform="translate(18,1)"/>
<path d="M0 0 C0.45647158 5.70589472 -0.30082416 8.60098008 -4 13 C-7.94937682 16.20219742 -11.00165008 16.29402058 -16 16 C-2.72340426 0 -2.72340426 0 0 0 Z " fill="#9065C9" transform="translate(31,15)"/>
<path d="M0 0 C-0.89528189 5.28712074 -4.58426796 8.09807486 -8.25 11.75 C-8.91902344 12.44738281 -9.58804687 13.14476562 -10.27734375 13.86328125 C-10.93347656 14.52199219 -11.58960938 15.18070313 -12.265625 15.859375 C-12.86149414 16.46233398 -13.45736328 17.06529297 -14.07128906 17.68652344 C-16.5141454 19.35013953 -18.10520897 19.25069065 -21 19 C-20.32324219 18.32582031 -19.64648438 17.65164062 -18.94921875 16.95703125 C-16.79195517 14.80128848 -14.65317936 12.62832562 -12.51953125 10.44921875 C-11.28393164 9.19523615 -10.04825327 7.94133117 -8.8125 6.6875 C-7.86987305 5.71973633 -7.86987305 5.71973633 -6.90820312 4.73242188 C-6.30556641 4.12333984 -5.70292969 3.51425781 -5.08203125 2.88671875 C-4.53780518 2.33201904 -3.9935791 1.77731934 -3.43286133 1.20581055 C-2 0 -2 0 0 0 Z " fill="#A75EBB" transform="translate(31,12)"/>
<path d="M0 0 C0.66 0.33 1.32 0.66 2 1 C0.51346494 4.46629835 -1.45722351 6.69022036 -4.1328125 9.328125 C-5.34130859 10.52695312 -5.34130859 10.52695312 -6.57421875 11.75 C-7.41597656 12.575 -8.25773438 13.4 -9.125 14.25 C-9.97449219 15.09046875 -10.82398438 15.9309375 -11.69921875 16.796875 C-13.79504923 18.86915683 -15.89540713 20.93662393 -18 23 C-18.99 22.67 -19.98 22.34 -21 22 C-18.09711653 19.09149079 -15.18568327 16.19205229 -12.265625 13.30078125 C-10.92703857 11.97139924 -9.58849776 10.64197129 -8.25 9.3125 C-7.56550781 8.63638672 -6.88101562 7.96027344 -6.17578125 7.26367188 C-5.52480469 6.61591797 -4.87382812 5.96816406 -4.203125 5.30078125 C-3.61176758 4.71466064 -3.02041016 4.12854004 -2.41113281 3.5246582 C-0.90170176 2.03618182 -0.90170176 2.03618182 0 0 Z " fill="#E044A4" transform="translate(23,2)"/>
<path d="M0 0 C0.99 0.33 1.98 0.66 3 1 C-3.27 7.27 -9.54 13.54 -16 20 C-16.33 19.01 -16.66 18.02 -17 17 C-11.39 11.39 -5.78 5.78 0 0 Z " fill="#CB40B6" transform="translate(18,1)"/>
<path d="M0 0 C-3.96 3.96 -7.92 7.92 -12 12 C-13 8 -13 8 -11.375 4.9375 C-7.71590001 0.41177106 -5.81893824 -1.45473456 0 0 Z " fill="#B63CC7" transform="translate(14,2)"/>
<path d="M0 0 C-1.39597071 4.441725 -3.43507124 7.01540848 -7 10 C-9.8125 10.8125 -9.8125 10.8125 -12 11 C-2.73033708 0 -2.73033708 0 0 0 Z " fill="#7B6FD9" transform="translate(31,20)"/>
<path d="M0 0 C0.66 0.33 1.32 0.66 2 1 C-0.31 3.31 -2.62 5.62 -5 8 C-5 5 -5 5 -2.5 2.3125 C-1.675 1.549375 -0.85 0.78625 0 0 Z " fill="#B132D4" transform="translate(8,2)"/>
</svg>
